<?xml version="1.0"?>
<svg width="614" height="115" xmlns="http://www.w3.org/2000/svg">
 <!-- Created with SVG-edit - http://svg-edit.googlecode.com/ -->
 <defs>
  <linearGradient id="svg_12" spreadMethod="pad">
   <stop stop-color="#ffaa56" offset="0.429688"/>
   <stop stop-color="#0055a9" offset="1"/>
  </linearGradient>
 </defs>
 <g>
  <title>Layer 1</title>
  <path fill="none" stroke="#000000" stroke-width="9" id="svg_5" d="m4.5,4.964279c2,0 6,0 11,0c8,0 15,0 23,0c7,0 11,0 15,0c4,0 9.07843,0.789856 12,2c2.065857,0.855713 5,2 6,2c1,0 2,1 3,1c1,0 1.693443,0.458801 3,1c1.847763,0.765366 3,0 4,0c1,0 2,0 3,0c2,0 3,0 4,0c1,0 2.026749,0.229752 3,0c2.176247,-0.513748 3.186012,-0.692551 5,-2c1.147263,-0.826904 2.076134,-0.61731 3,-1c1.306557,-0.541199 2,-1 3,-1c1,0 2.152237,0.765366 4,0c1.306557,-0.541199 2,-1 4,-1c1,0 3,0 4,0c1,0 2,0 3,0c1,0 3,0 4,0l1,0l1,0l1,0"/>
  <path fill="none" stroke-width="9" id="svg_6" d="m64.5,110.964279c-1,-1.019989 -1,-3.059998 -1,-5.100006c0,-3.059998 0,-6.119995 0,-8.160004c0,-3.059998 0,-5.099976 0,-7.139984c0,-1.02002 0,-3.059998 0,-4.080017c0,-1.019989 0,-3.059998 0,-4.079987c0,-3.059998 0,-6.119995 0,-9.180008c0,-3.059998 -0.640732,-6.172684 0,-10.199997c0.506554,-3.183868 1.486252,-5.940216 2,-8.160004c0.689247,-2.978149 0.496231,-5.005936 1,-9.179993c0.366547,-3.037079 0,-5.100006 0,-7.139999c0,-1.020004 0,-2.039993 0,-4.080002c0,-1.020004 0,-3.059998 0,-4.080002c0,-1.019989 0,-2.039993 0,-5.099991c0,-3.060013 -0.493446,-5.99614 -1,-9.180008c-0.320358,-2.013657 0,-3.059998 -2,-5.099991l0,-1.020004l0,-1.020004" stroke="#000000"/>
  <path fill="none" stroke="#000000" stroke-width="9" id="svg_7" d="m134.5,6.964279c0,1 -1.067505,5.040756 0,19c1.002914,13.114655 5.130814,26.957962 7,33c2.151596,6.954895 4,11 5,15c1,4 2.493454,5.878571 3,9c0.160187,0.987091 0.770248,2.026764 1,3c0.513748,2.176239 1,3 1,4c0,1 0,2 0,3c0,1 0,2 0,3c0,1 1,2 1,4c0,1 0,2 0,3c0,1 0,2 0,3c0,1 0.234634,0.847748 1,-1c0.541199,-1.306549 0.610641,-3.159271 2,-6c1.584106,-3.238922 4,-7 5,-10c1,-3 2,-5 2,-7c0,-1 0.458801,-1.693451 1,-3c0.38269,-0.923889 0.458801,-2.693451 1,-4c0.38269,-0.923889 1,-4 1,-5c0,-2 0,-3 0,-5c0,-1 0.540497,-3.053497 1,-5c0.513748,-2.176254 1.458801,-2.693436 2,-4c0.38269,-0.923874 0.458801,-1.693436 1,-3c0.38269,-0.923874 -0.414215,-1.585785 1,-3c0.707108,-0.707108 0.679642,1.025818 1,3c0.506546,3.121445 2,7 4,10c2,3 2.337494,4.310013 4,7c1.487,2.406006 3.486267,2.823746 4,5c0.229767,0.973236 2,1 2,3c0,1 1.234619,1.152252 2,3c0.541199,1.306549 2.486267,0.823761 3,3c0.229767,0.973236 0,2 0,4c0,2 1,3 1,4c0,1 0,2 0,4c0,1 0,2 0,3c0,1 1,1 1,0c0,-3 2.795685,-9.091156 6,-16c1.881653,-4.057007 3.714111,-8.21167 6,-11c0.896606,-1.093674 0.540497,-2.053497 1,-4c0.513733,-2.176254 3.115875,-4.963837 4,-8c1.152771,-3.958679 1.692535,-8.186005 3,-10c0.826904,-1.147263 1.458801,-2.693436 2,-4c0.38269,-0.923874 0.493469,-1.878555 1,-5c0.640717,-3.948349 0.540497,-7.053497 1,-9c0.513733,-2.176254 1,-3 1,-4c0,-1 0,-2 0,-3c0,-1 0,-2 0,-3c0,-1 0,-2 0,-3c0,-1 1,-2 1,-3c0,-1 0,-2 0,-3c0,-1 0,-2 0,-3c0,-1 0,-2 0,-3l0,-1"/>
  <path fill="#ffd7b2" stroke="#000000" stroke-width="9" id="svg_8" d="m304.5,22.964279c0,-1 0,-2 0,-4c0,-4 0,-6 0,-8c0,-1 -0.852722,-1.173096 -2,-2c-1.813995,-1.307449 -3.053497,-1.540497 -5,-2c-2.176239,-0.513748 -5,-1 -8,-1c-3,0 -6,0 -8,0c-3,0 -6,0 -9,0c-3,0 -4,0 -5,0c-1,0 -2.693451,-0.458801 -4,-1c-0.923889,-0.38269 -2,0 -4,0c-1,0 -3,0 -4,0c-1,0 -2,0 -3,0c-1,0 -2.292908,-0.707108 -3,0c-1.414215,1.414215 -0.693451,2.458801 -2,3c-0.923889,0.38269 -2.152252,0.234634 -4,1c-1.306549,0.541199 -0.770233,2.026749 -1,3c-0.513733,2.176254 -1.679626,4.025818 -2,6c-0.506531,3.121445 -1.31073,5.080246 -2,8c-0.513733,2.176254 -1,4 -1,5c0,1 -1,2 -1,3c0,1 -0.540497,2.053497 -1,4c-0.513733,2.176254 -2,4 -2,7c0,4 -1,7 -1,10c0,3 0,5 0,7c0,2 0,4 0,6c0,3 0,5 0,8c0,2 -0.459503,4.053497 0,6c0.513733,2.176239 1.692535,4.186005 3,6c0.826904,1.147278 1.61731,3.076111 2,4c0.541199,1.306549 2.61731,3.076111 3,4c0.541199,1.306549 1.292908,2.292908 2,3c1.414215,1.414215 2.902832,1.224213 5,2c3.867004,1.430481 9.029968,2.511261 13,3c4.092224,0.503784 5.693451,2.458801 7,3c0.923889,0.38269 2,0 3,0c2,0 4,0 9,0c4,0 8,0 11,0c1,0 2.076111,-0.61731 3,-1c2.613129,-1.082397 3,-3 4,-4c1,-1 3,-2 6,-5c3,-3 7.210052,-4.850769 10,-9c3.253601,-4.838806 3.691254,-11.071808 5,-16c0.811646,-3.056335 1,-5 1,-6c0,-1 0,-3 0,-4c0,-1 0,-2 0,-4c0,-2 0,-4 0,-6c0,-1 0,-2 0,-3c0,-1 0,-2 0,-3c0,-1 -1,-2 -1,-3c0,-1 -0.292908,-2.292892 -1,-3c-0.707092,-0.707108 -0.693451,-1.458801 -2,-2c-0.923889,-0.38269 -1.292908,-0.292892 -2,-1c-0.707092,-0.707108 -0.458801,-1.693436 -1,-3c-0.38269,-0.923874 -0.458801,-1.693436 -1,-3c-0.38269,-0.923874 0,-2 0,-3c0,-1 -0.458801,-1.693436 -1,-3c-0.38269,-0.923874 0,-2 0,-3c0,-1 -1,-1 -1,-2c0,-1 -1,-2 -1,-3l0,-1l-2,0l0,-1"/>
  <path fill="none" stroke="#000000" stroke-width="9" id="svg_9" d="m338.5,108.964279c0,-2 0,-15 0,-22c0,-10 0,-20 0,-26c0,-5 0,-8 0,-10c0,-2 0,-4 0,-5c0,-2 0,-4 0,-5c0,-1 0,-2 0,-4c0,-1 0,-3 0,-5c0,-1 0,-2 0,-4c0,-1 0,-2 0,-3c0,-2 0,-3 0,-4c0,-1 0,-2 0,-4c0,-2 -0.292999,-3.292999 -1,-4c-0.707001,-0.707001 -0.382996,-1.923996 0,-1c1.082001,2.613007 5.222992,4.723999 9,8c3.204987,2.779999 8.057007,6.917999 11,9c4.082001,2.888 7.06601,4.878006 9,6c3.118011,1.809998 4.186005,3.692993 6,5c2.295013,1.654007 3,4 5,6c4,4 6,6 7,8c1,2 4.190002,5.882004 6,9c1.809998,3.117996 4.415985,4.761002 6,8c1.389008,2.841003 2,5 3,7c1,2 1.493011,3.878998 2,7c0.480988,2.960999 -0.14801,5.227997 1,8c0.540985,1.307007 1,10 2,10c1,0 0,-2 0,-3c0,-1 0,-3 0,-5c0,-3 0,-5 0,-7c0,-3 0.493011,-4.878998 1,-8c0.320007,-1.973999 0.485992,-3.824005 1,-6c0.688995,-2.919998 0.670013,-8.014008 1,-12c0.502014,-6.061996 1.080994,-9.106995 2,-13c0.514008,-2.175995 1,-4 1,-6c0,-1 0,-3 0,-5c0,-1 0,-3 0,-4c0,-2 0,-3 0,-4c0,-1 0,-2 0,-3c0,-1 0.382996,-2.076004 0,-3c-0.540985,-1.307007 -1,-2 -1,-3c0,-1 -2,-1 -2,-2c0,-1 -0.292999,-1.292999 -1,-2c-1.414001,-1.414001 -0.459015,-2.692993 -1,-4c-0.382996,-0.923996 0,-2 0,-3l0,-1"/>
  <path fill="#56ffaa" stroke-width="9" d="m599.458862,16.154831c0,-0.960968 -4.585083,-6.714325 -5.65448,-7.508942c-1.690735,-1.256409 -2.846069,-1.480377 -4.660461,-1.921951c-2.028503,-0.493683 -4.660461,-0.960968 -7.456726,-0.960968c-2.796326,0 -5.59259,0 -7.456787,0c-2.796265,0 -5.59259,0 -8.388855,0c-2.796265,0 -3.728394,0 -4.660461,0c-0.932129,0 -2.51062,-0.440887 -3.728394,-0.960968c-0.861145,-0.367752 -1.864197,0 -3.728394,0c-0.932068,0 -2.796265,0 -3.728394,0c-0.932068,0 -1.864136,0 -2.796265,0c-0.932068,0 -2.137207,-0.679489 -2.796265,0c-1.318237,1.359024 -0.646423,2.362839 -1.864197,2.882904c-0.861145,0.367767 -2.006104,0.225464 -3.728394,0.960983c-1.217773,0.520065 -0.717896,1.947647 -0.932068,2.882904c-0.478882,2.091324 -1.565613,3.868683 -1.864197,5.765823c-0.472168,2.999619 -1.221741,4.881973 -1.864197,7.687744c-0.478882,2.091339 -0.932129,3.843887 -0.932129,4.804855c0,0.960968 0.985596,-5.431595 -0.932068,2.882904c-1.917664,8.314499 -2.796265,7.687759 -2.796265,10.570679c0,3.843872 -0.932129,6.726807 -0.932129,9.609711c0,2.882874 0,4.80481 0,6.726746c0,1.921936 0,3.843903 0,5.765839c0,2.882904 0,4.80484 0,7.687744c0,1.921936 -0.428284,3.895294 0,5.765808c0.478882,2.091309 1.577637,4.022614 2.796326,5.765808c0.770752,1.102509 1.507446,2.956055 1.864136,3.843903c0.504456,1.255554 2.439636,2.956024 2.796326,3.843872c0.504456,1.255554 1.205078,2.2034 1.864197,2.882904c1.318176,1.359009 2.705688,1.176422 4.660461,1.921936c3.604431,1.374664 8.416809,2.413239 12.117249,2.882904c3.814331,0.484131 5.306824,2.362854 6.524658,2.882904c0.861145,0.367767 1.864197,0 2.796265,0c1.864197,0 3.728394,0 8.388855,0c3.728394,0 7.456787,0 10.253052,0c0.932129,0 1.93512,-0.593201 2.796265,-0.960968c2.43573,-1.040131 2.796326,-2.882904 3.728394,-3.843872c0.932129,-0.960968 2.796326,-1.921936 5.59259,-4.80484c2.796265,-2.882904 6.720459,-4.661438 9.320923,-8.648743c3.032715,-4.649933 3.440674,-10.639648 4.660522,-15.375488c0.756531,-2.937042 0.932068,-4.80484 0.932068,-5.765808c0,-0.960999 0,-2.882935 0,-3.843903c0,-0.960968 0,-1.921936 0,-3.843872c0,-1.921906 0,-3.843842 0,-5.765778c0,-0.960999 0,-1.921967 0,-2.882935c0,-0.960968 0,-1.921936 0,-2.882904c0,-0.960968 -0.932068,-1.921951 -0.932068,-2.882919c0,-0.960968 -0.273071,-2.203415 -0.932129,-2.882904c-0.659058,-0.679504 -0.646362,-1.401871 -1.864197,-1.921936c-0.861145,-0.367767 -1.205078,-0.281479 -1.864197,-0.960968c-0.659058,-0.679504 -0.427612,-1.627335 -0.932068,-2.882919c-0.356689,-0.887833 -0.427673,-1.627319 -0.932129,-2.882904c-0.356689,-0.887833 0,-1.921936 0,-2.882904c0,-0.960983 -0.427612,-1.627335 -0.932068,-2.882919c0,-3.843872 -0.932068,-3.843872 -0.932068,-4.80484l-0.932129,-2.882919l0,-0.960968" id="svg_10" stroke="#000000"/>
  <path fill="#aad4ff" stroke="#000000" stroke-width="9" d="m497.5,22.964279c0,-1 0,-2 0,-4c0,-4 0,-6 0,-8c0,-1 -0.852722,-1.173096 -2,-2c-1.813965,-1.307449 -3.053467,-1.540497 -5,-2c-2.17627,-0.513748 -5,-1 -8,-1c-3,0 -6,0 -8,0c-3,0 -6,0 -9,0c-3,0 -4,0 -5,0c-1,0 -2.693481,-0.458801 -4,-1c-0.923889,-0.38269 -2,0 -4,0c-1,0 -3,0 -4,0c-1,0 -2,0 -3,0c-1,0 -2.292908,-0.707108 -3,0c-1.414246,1.414215 -0.693481,2.458801 -2,3c-0.923889,0.38269 -2.152222,0.234634 -4,1c-1.306519,0.541199 -0.770203,2.026749 -1,3c-0.513733,2.176254 -1.679626,4.025818 -2,6c-0.506531,3.121445 -1.31073,5.080246 -2,8c-0.513733,2.176254 -1,4 -1,5c0,1 -1,2 -1,3c0,1 -0.540527,2.053497 -1,4c-0.513733,2.17627 -2,4 -2,7c0,4 -1,7 -1,10c0,3 0,5 0,7c0,2 0,4 0,6c0,3 0,5 0,8c0,2 -0.459473,4.053497 0,6c0.513733,2.176239 1.692566,4.186005 3,6c0.826904,1.147278 1.61731,3.076111 2,4c0.541199,1.306549 2.61731,3.076111 3,4c0.541199,1.306549 1.292908,2.292908 2,3c1.414246,1.414215 2.902832,1.224213 5,2c3.867004,1.430481 9.029968,2.511261 13,3c4.092224,0.503784 5.693481,2.458801 7,3c0.923889,0.38269 2,0 3,0c2,0 4,0 9,0c4,0 8,0 11,0c1,0 2.076111,-0.61731 3,-1c2.613159,-1.082397 3,-3 4,-4c1,-1 3,-2 6,-5c3,-3 7.210083,-4.850769 10,-9c3.253601,-4.838806 3.691284,-11.071808 5,-16c0.811646,-3.056335 1,-5 1,-6c0,-1 0,-3 0,-4c0,-1 0,-2 0,-4c0,-2 0,-4 0,-6c0,-1 0,-2 0,-3c0,-1 0,-2 0,-3c0,-1 -1,-2 -1,-3c0,-1 -0.292908,-2.292908 -1,-3c-0.707092,-0.707092 -0.693481,-1.458801 -2,-2c-0.923889,-0.38269 -1.292908,-0.292908 -2,-1c-0.707092,-0.707092 -0.458801,-1.69342 -1,-3c-0.38269,-0.923874 -0.458801,-1.693436 -1,-3c-0.38269,-0.923874 0,-2 0,-3c0,-1 -0.458801,-1.693436 -1,-3c-0.38269,-0.923874 0,-2 0,-3c0,-1 -1,-1 -1,-2c0,-1 -1,-2 -1,-3l0,-1l-2,0l0,-1" id="svg_11"/>
 </g>
</svg>